<svg xmlns="http://www.w3.org/2000/svg" xmlns:xlink="http://www.w3.org/1999/xlink" width="500" zoomAndPan="magnify" viewBox="0 0 375 374.999991" height="500" preserveAspectRatio="xMidYMid meet" version="1.2"><defs><clipPath id="108457e0b8"><path d="M 217 177 L 241 177 L 241 206 L 217 206 Z M 217 177 "/></clipPath><clipPath id="ca8882208e"><path d="M 221.296875 167.898438 L 251.421875 181.375 L 237.332031 212.867188 L 207.210938 199.390625 Z M 221.296875 167.898438 "/></clipPath><clipPath id="d20056cb0e"><path d="M 221.296875 167.898438 L 251.421875 181.375 L 237.332031 212.867188 L 207.210938 199.390625 Z M 221.296875 167.898438 "/></clipPath><clipPath id="41c0d27ee9"><path d="M 217 175 L 239 175 L 239 204 L 217 204 Z M 217 175 "/></clipPath><clipPath id="30ba75bc3a"><path d="M 221.296875 167.898438 L 251.421875 181.375 L 237.332031 212.867188 L 207.210938 199.390625 Z M 221.296875 167.898438 "/></clipPath><clipPath id="11688a21ef"><path d="M 221.296875 167.898438 L 251.421875 181.375 L 237.332031 212.867188 L 207.210938 199.390625 Z M 221.296875 167.898438 "/></clipPath><clipPath id="6572b84933"><path d="M 217 175 L 221 175 L 221 204 L 217 204 Z M 217 175 "/></clipPath><clipPath id="7a409c4128"><path d="M 221.296875 167.898438 L 251.421875 181.375 L 237.332031 212.867188 L 207.210938 199.390625 Z M 221.296875 167.898438 "/></clipPath><clipPath id="5e86679680"><path d="M 221.296875 167.898438 L 251.421875 181.375 L 237.332031 212.867188 L 207.210938 199.390625 Z M 221.296875 167.898438 "/></clipPath><clipPath id="fa5ff525fc"><path d="M 209 180 L 241 180 L 241 210 L 209 210 Z M 209 180 "/></clipPath><clipPath id="0085dedd46"><path d="M 221.296875 167.898438 L 251.421875 181.375 L 237.332031 212.867188 L 207.210938 199.390625 Z M 221.296875 167.898438 "/></clipPath><clipPath id="6510f14b13"><path d="M 221.296875 167.898438 L 251.421875 181.375 L 237.332031 212.867188 L 207.210938 199.390625 Z M 221.296875 167.898438 "/></clipPath><filter x="0%" y="0%" width="100%" filterUnits="objectBoundingBox" id="8b74682281" height="100%"><feColorMatrix values="0 0 0 0 1 0 0 0 0 1 0 0 0 0 1 0 0 0 1 0" type="matrix" in="SourceGraphic"/></filter><clipPath id="d1768a6e9c"><path d="M 8 0 L 26 0 L 26 24 L 8 24 Z M 8 0 "/></clipPath><clipPath id="086e506ab5"><path d="M 12.296875 -12.101562 L 42.421875 1.375 L 28.332031 32.867188 L -1.789062 19.390625 Z M 12.296875 -12.101562 "/></clipPath><clipPath id="eb3dc63197"><path d="M 12.296875 -12.101562 L 42.421875 1.375 L 28.332031 32.867188 L -1.789062 19.390625 Z M 12.296875 -12.101562 "/></clipPath><clipPath id="3de42eeea1"><rect x="0" width="32" y="0" height="30"/></clipPath><clipPath id="d1c755611f"><path d="M 218 176 L 241 176 L 241 205 L 218 205 Z M 218 176 "/></clipPath><clipPath id="f00ed3bf76"><path d="M 221.296875 167.898438 L 251.421875 181.375 L 237.332031 212.867188 L 207.210938 199.390625 Z M 221.296875 167.898438 "/></clipPath><clipPath id="1f87c8b1a6"><path d="M 221.296875 167.898438 L 251.421875 181.375 L 237.332031 212.867188 L 207.210938 199.390625 Z M 221.296875 167.898438 "/></clipPath></defs><g id="ae3064741b"><g clip-rule="nonzero" clip-path="url(#108457e0b8)"><g clip-rule="nonzero" clip-path="url(#ca8882208e)"><g clip-rule="nonzero" clip-path="url(#d20056cb0e)"><path style=" stroke:none;fill-rule:nonzero;fill:#21b6b6;fill-opacity:1;" d="M 236.351562 177.132812 C 237.84375 177.523438 239.335938 177.914062 240.828125 178.304688 C 240.765625 187.351562 240.699219 196.402344 240.632812 205.449219 C 233.738281 205.332031 226.847656 205.210938 219.953125 205.089844 C 219.242188 204.402344 218.53125 203.714844 217.820312 203.027344 C 223.996094 194.394531 230.171875 185.761719 236.351562 177.132812 Z M 236.351562 177.132812 "/></g></g></g><g clip-rule="nonzero" clip-path="url(#41c0d27ee9)"><g clip-rule="nonzero" clip-path="url(#30ba75bc3a)"><g clip-rule="nonzero" clip-path="url(#11688a21ef)"><path style=" stroke:none;fill-rule:nonzero;fill:#2ecbaa;fill-opacity:1;" d="M 217.886719 175.542969 L 238.671875 175.671875 L 238.605469 203.152344 L 217.820312 203.023438 Z M 217.886719 175.542969 "/></g></g></g><g clip-rule="nonzero" clip-path="url(#6572b84933)"><g clip-rule="nonzero" clip-path="url(#7a409c4128)"><g clip-rule="nonzero" clip-path="url(#5e86679680)"><path style=" stroke:none;fill-rule:nonzero;fill:#2ecbaa;fill-opacity:1;" d="M 217.886719 175.542969 L 220.125 175.558594 L 220.214844 203.015625 L 217.820312 203.023438 Z M 217.886719 175.542969 "/></g></g></g><g clip-rule="nonzero" clip-path="url(#fa5ff525fc)"><g clip-rule="nonzero" clip-path="url(#0085dedd46)"><g clip-rule="nonzero" clip-path="url(#6510f14b13)"><g mask="url(#03eda4917b)" transform="matrix(1,0,0,1,209,180)"><g clip-path="url(#3de42eeea1)"><g clip-rule="nonzero" clip-path="url(#d1768a6e9c)"><g clip-rule="nonzero" clip-path="url(#086e506ab5)"><g clip-rule="nonzero" clip-path="url(#eb3dc63197)"><path style=" stroke:none;fill-rule:nonzero;fill:#ffffff;fill-opacity:1;" d="M 8.875 0.242188 L 8.820312 23.023438 L 25.847656 23.128906 C 15.753906 15.484375 11.046875 6.453125 8.875 0.242188 Z M 8.875 0.242188 "/></g></g></g></g><mask id="03eda4917b"><g filter="url(#8b74682281)"><rect x="0" width="375" y="0" height="374.999991" style="fill:#000000;fill-opacity:0.4;stroke:none;"/></g></mask></g></g></g></g><g clip-rule="nonzero" clip-path="url(#d1c755611f)"><g clip-rule="nonzero" clip-path="url(#f00ed3bf76)"><g clip-rule="nonzero" clip-path="url(#1f87c8b1a6)"><path style=" stroke:none;fill-rule:nonzero;fill:#2ecbaa;fill-opacity:1;" d="M 218.683594 203.03125 L 220.199219 204.542969 L 240.042969 204.90625 L 240.351562 178.179688 L 238.667969 176.363281 C 238.648438 185.292969 238.625 194.222656 238.605469 203.152344 C 231.964844 203.109375 225.324219 203.070312 218.683594 203.03125 Z M 218.683594 203.03125 "/></g></g></g><g style="fill:#2ecbaa;fill-opacity:1;"><g transform="translate(146.818999, 199.874987)"><path style="stroke:none" d="M 11.375 -2.984375 C 12.414062 -2.984375 13.3125 -3.113281 14.0625 -3.375 C 14.8125 -3.632812 15.613281 -3.960938 16.46875 -4.359375 C 16.53125 -4.390625 16.617188 -4.421875 16.734375 -4.453125 C 16.847656 -4.492188 16.988281 -4.515625 17.15625 -4.515625 C 17.644531 -4.515625 18.050781 -4.34375 18.375 -4 C 18.695312 -3.65625 18.859375 -3.253906 18.859375 -2.796875 C 18.859375 -2.203125 18.570312 -1.703125 18 -1.296875 C 17.4375 -0.890625 16.726562 -0.5625 15.875 -0.3125 C 15.03125 -0.0703125 14.15625 0.101562 13.25 0.21875 C 12.351562 0.332031 11.578125 0.390625 10.921875 0.390625 C 8.148438 0.390625 6.003906 -0.390625 4.484375 -1.953125 C 2.960938 -3.523438 2.203125 -5.453125 2.203125 -7.734375 L 2.203125 -16.90625 C 2.203125 -19.257812 2.96875 -21.226562 4.5 -22.8125 C 6.039062 -24.394531 8.265625 -25.1875 11.171875 -25.1875 C 13.878906 -25.1875 15.910156 -24.457031 17.265625 -23 C 18.628906 -21.550781 19.3125 -19.617188 19.3125 -17.203125 C 19.3125 -14.941406 18.65625 -13.164062 17.34375 -11.875 C 16.039062 -10.59375 13.9375 -9.953125 11.03125 -9.953125 C 10.3125 -9.953125 9.507812 -9.988281 8.625 -10.0625 C 7.738281 -10.144531 6.875 -10.253906 6.03125 -10.390625 L 6.03125 -7.5 C 6.03125 -6.125 6.476562 -5.023438 7.375 -4.203125 C 8.269531 -3.390625 9.601562 -2.984375 11.375 -2.984375 Z M 15.53125 -17.203125 C 15.53125 -18.796875 15.144531 -19.941406 14.375 -20.640625 C 13.613281 -21.347656 12.515625 -21.703125 11.078125 -21.703125 C 9.472656 -21.703125 8.226562 -21.300781 7.34375 -20.5 C 6.46875 -19.707031 6.03125 -18.625 6.03125 -17.25 L 6.03125 -13.53125 C 6.945312 -13.394531 7.910156 -13.300781 8.921875 -13.25 C 9.929688 -13.207031 10.679688 -13.1875 11.171875 -13.1875 C 12.410156 -13.1875 13.335938 -13.378906 13.953125 -13.765625 C 14.578125 -14.160156 14.992188 -14.664062 15.203125 -15.28125 C 15.421875 -15.90625 15.53125 -16.546875 15.53125 -17.203125 Z M 15.53125 -17.203125 "/></g></g><g style="fill:#2ecbaa;fill-opacity:1;"><g transform="translate(168.132302, 199.874987)"><path style="stroke:none" d="M 10.390625 -24.984375 C 12.148438 -24.984375 13.960938 -24.675781 15.828125 -24.0625 L 15.828125 -33.65625 C 15.828125 -34.1875 15.988281 -34.628906 16.3125 -34.984375 C 16.644531 -35.347656 17.117188 -35.53125 17.734375 -35.53125 C 18.359375 -35.53125 18.832031 -35.347656 19.15625 -34.984375 C 19.488281 -34.628906 19.65625 -34.1875 19.65625 -33.65625 L 19.65625 -5.59375 C 19.65625 -4.90625 19.742188 -4.332031 19.921875 -3.875 C 20.097656 -3.414062 20.429688 -3.003906 20.921875 -2.640625 C 21.015625 -2.515625 21.09375 -2.378906 21.15625 -2.234375 C 21.226562 -2.085938 21.265625 -1.898438 21.265625 -1.671875 C 21.265625 -1.140625 21.082031 -0.71875 20.71875 -0.40625 C 20.363281 -0.101562 19.972656 0.046875 19.546875 0.046875 C 18.992188 0.046875 18.492188 -0.0976562 18.046875 -0.390625 C 17.609375 -0.679688 17.242188 -1.054688 16.953125 -1.515625 C 15.878906 -0.992188 14.757812 -0.546875 13.59375 -0.171875 C 12.4375 0.203125 11.238281 0.390625 10 0.390625 C 7.414062 0.390625 5.46875 -0.460938 4.15625 -2.171875 C 2.851562 -3.890625 2.203125 -6.125 2.203125 -8.875 L 2.203125 -15.09375 C 2.203125 -17.050781 2.453125 -18.769531 2.953125 -20.25 C 3.460938 -21.738281 4.3125 -22.898438 5.5 -23.734375 C 6.695312 -24.566406 8.328125 -24.984375 10.390625 -24.984375 Z M 15.828125 -5.59375 L 15.828125 -20.625 C 15.015625 -20.988281 14.132812 -21.25 13.1875 -21.40625 C 12.238281 -21.570312 11.46875 -21.65625 10.875 -21.65625 C 9.082031 -21.65625 7.828125 -21.128906 7.109375 -20.078125 C 6.390625 -19.035156 6.03125 -17.375 6.03125 -15.09375 L 6.03125 -8.875 C 6.03125 -4.976562 7.613281 -3.03125 10.78125 -3.03125 C 11.5625 -3.03125 12.410156 -3.160156 13.328125 -3.421875 C 14.242188 -3.691406 15.109375 -4.035156 15.921875 -4.453125 C 15.890625 -4.648438 15.863281 -4.847656 15.84375 -5.046875 C 15.832031 -5.242188 15.828125 -5.425781 15.828125 -5.59375 Z M 15.828125 -5.59375 "/></g></g><g style="fill:#2ecbaa;fill-opacity:1;"><g transform="translate(192.042396, 199.874987)"><path style="stroke:none" d="M 17.25 -6.03125 L 17.25 -23.171875 C 17.25 -23.703125 17.410156 -24.144531 17.734375 -24.5 C 18.066406 -24.851562 18.539062 -25.03125 19.15625 -25.03125 C 19.8125 -25.03125 20.289062 -24.851562 20.59375 -24.5 C 20.90625 -24.144531 21.0625 -23.703125 21.0625 -23.171875 L 21.0625 -6.03125 C 21.0625 -5.144531 21.109375 -4.5 21.203125 -4.09375 C 21.304688 -3.6875 21.421875 -3.398438 21.546875 -3.234375 C 21.679688 -3.066406 21.816406 -2.851562 21.953125 -2.59375 C 22.015625 -2.5 22.085938 -2.367188 22.171875 -2.203125 C 22.253906 -2.035156 22.296875 -1.835938 22.296875 -1.609375 C 22.296875 -1.160156 22.125 -0.765625 21.78125 -0.421875 C 21.4375 -0.078125 21.003906 0.09375 20.484375 0.09375 C 20.023438 0.09375 19.625 -0.0390625 19.28125 -0.3125 C 18.9375 -0.59375 18.632812 -0.945312 18.375 -1.375 C 17.300781 -0.75 16.15625 -0.296875 14.9375 -0.015625 C 13.726562 0.253906 12.554688 0.390625 11.421875 0.390625 C 8.835938 0.390625 6.890625 -0.457031 5.578125 -2.15625 C 4.273438 -3.851562 3.625 -6.09375 3.625 -8.875 L 3.625 -23.171875 C 3.625 -23.703125 3.785156 -24.144531 4.109375 -24.5 C 4.441406 -24.851562 4.914062 -25.03125 5.53125 -25.03125 C 6.15625 -25.03125 6.628906 -24.851562 6.953125 -24.5 C 7.285156 -24.144531 7.453125 -23.703125 7.453125 -23.171875 L 7.453125 -8.875 C 7.453125 -7.007812 7.832031 -5.566406 8.59375 -4.546875 C 9.363281 -3.535156 10.484375 -3.03125 11.953125 -3.03125 C 13.847656 -3.03125 15.644531 -3.570312 17.34375 -4.65625 C 17.3125 -4.914062 17.285156 -5.160156 17.265625 -5.390625 C 17.253906 -5.617188 17.25 -5.832031 17.25 -6.03125 Z M 17.25 -6.03125 "/></g></g></g></svg>