<svg xmlns="http://www.w3.org/2000/svg" xmlns:xlink="http://www.w3.org/1999/xlink" width="500" zoomAndPan="magnify" viewBox="0 0 375 374.999991" height="500" preserveAspectRatio="xMidYMid meet" version="1.2"><defs><clipPath id="d68bbe2539"><path d="M 217.035156 176 L 258 176 L 258 217.644531 L 217.035156 217.644531 Z M 217.035156 176 "/></clipPath><clipPath id="29a5654326"><path d="M 237 156.628906 L 278.050781 156.628906 L 278.050781 198 L 237 198 Z M 237 156.628906 "/></clipPath></defs><g id="b81279135c"><g clip-rule="nonzero" clip-path="url(#d68bbe2539)"><path style=" stroke:none;fill-rule:nonzero;fill:#2ecbaa;fill-opacity:1;" d="M 257.714844 197.308594 L 257.714844 207.605469 C 257.714844 213.15625 253.222656 217.648438 247.675781 217.648438 C 244.902344 217.648438 242.398438 216.527344 240.578125 214.707031 C 238.761719 212.890625 237.640625 210.375 237.640625 207.605469 L 237.640625 197.046875 L 227.070312 197.046875 C 221.53125 197.046875 217.035156 192.550781 217.035156 187.003906 C 217.035156 181.457031 221.53125 176.96875 227.070312 176.96875 L 237.375 176.96875 L 237.375 187.15625 C 237.375 192.765625 241.917969 197.308594 247.519531 197.308594 L 257.71875 197.308594 Z M 257.714844 197.308594 "/></g><path style=" stroke:none;fill-rule:nonzero;fill:#888dda;fill-opacity:1;" d="M 257.714844 187.113281 L 257.714844 197.308594 L 247.519531 197.308594 C 241.917969 197.308594 237.375 192.769531 237.375 187.160156 L 237.375 176.96875 L 247.570312 176.96875 C 253.171875 176.96875 257.714844 181.511719 257.714844 187.113281 Z M 257.714844 187.113281 "/><g clip-rule="nonzero" clip-path="url(#29a5654326)"><path style=" stroke:none;fill-rule:nonzero;fill:#caf729;fill-opacity:1;" d="M 278.054688 187.265625 C 278.054688 192.8125 273.5625 197.308594 268.015625 197.308594 L 257.714844 197.308594 L 257.714844 187.109375 C 257.714844 181.507812 253.175781 176.96875 247.574219 176.96875 L 237.375 176.96875 L 237.375 166.660156 C 237.375 161.125 241.871094 156.628906 247.410156 156.628906 C 250.179688 156.628906 252.695312 157.75 254.511719 159.570312 C 256.332031 161.386719 257.453125 163.894531 257.453125 166.664062 L 257.453125 177.234375 L 268.015625 177.234375 C 273.5625 177.234375 278.054688 181.726562 278.054688 187.269531 Z M 278.054688 187.265625 "/></g><g style="fill:#4b52ad;fill-opacity:1;"><g transform="translate(96.221835, 209.591709)"><path style="stroke:none" d="M 20.171875 -5.296875 C 22.023438 -5.296875 23.617188 -5.53125 24.953125 -6 C 26.285156 -6.46875 27.707031 -7.046875 29.21875 -7.734375 C 29.332031 -7.796875 29.488281 -7.851562 29.6875 -7.90625 C 29.894531 -7.96875 30.144531 -8 30.4375 -8 C 31.300781 -8 32.023438 -7.691406 32.609375 -7.078125 C 33.191406 -6.472656 33.484375 -5.765625 33.484375 -4.953125 C 33.484375 -3.910156 32.972656 -3.023438 31.953125 -2.296875 C 30.941406 -1.578125 29.679688 -1 28.171875 -0.5625 C 26.660156 -0.125 25.109375 0.191406 23.515625 0.390625 C 21.921875 0.597656 20.546875 0.703125 19.390625 0.703125 C 14.460938 0.703125 10.648438 -0.6875 7.953125 -3.46875 C 5.253906 -6.257812 3.90625 -9.679688 3.90625 -13.734375 L 3.90625 -30 C 3.90625 -34.175781 5.269531 -37.664062 8 -40.46875 C 10.726562 -43.28125 14.671875 -44.6875 19.828125 -44.6875 C 24.640625 -44.6875 28.25 -43.394531 30.65625 -40.8125 C 33.0625 -38.238281 34.265625 -34.804688 34.265625 -30.515625 C 34.265625 -26.515625 33.101562 -23.367188 30.78125 -21.078125 C 28.457031 -18.796875 24.71875 -17.65625 19.5625 -17.65625 C 18.289062 -17.65625 16.867188 -17.726562 15.296875 -17.875 C 13.734375 -18.019531 12.195312 -18.207031 10.6875 -18.4375 L 10.6875 -13.296875 C 10.6875 -10.867188 11.484375 -8.925781 13.078125 -7.46875 C 14.679688 -6.019531 17.046875 -5.296875 20.171875 -5.296875 Z M 27.5625 -30.515625 C 27.5625 -33.359375 26.878906 -35.398438 25.515625 -36.640625 C 24.160156 -37.890625 22.207031 -38.515625 19.65625 -38.515625 C 16.8125 -38.515625 14.601562 -37.804688 13.03125 -36.390625 C 11.46875 -34.972656 10.6875 -33.046875 10.6875 -30.609375 L 10.6875 -24 C 12.3125 -23.769531 14.019531 -23.609375 15.8125 -23.515625 C 17.613281 -23.429688 18.953125 -23.390625 19.828125 -23.390625 C 22.023438 -23.390625 23.675781 -23.738281 24.78125 -24.4375 C 25.882812 -25.132812 26.625 -26.03125 27 -27.125 C 27.375 -28.226562 27.5625 -29.359375 27.5625 -30.515625 Z M 27.5625 -30.515625 "/></g></g><g style="fill:#4b52ad;fill-opacity:1;"><g transform="translate(132.829208, 209.591709)"><path style="stroke:none" d="M 6.4375 -2.875 L 6.4375 -46.6875 C 6.4375 -52.195312 7.882812 -56.253906 10.78125 -58.859375 C 13.675781 -61.472656 17.300781 -62.867188 21.65625 -63.046875 C 22 -63.046875 22.585938 -63.03125 23.421875 -63 C 24.265625 -62.96875 25.164062 -62.835938 26.125 -62.609375 C 27.082031 -62.378906 27.894531 -61.988281 28.5625 -61.4375 C 29.226562 -60.882812 29.5625 -60.113281 29.5625 -59.125 C 29.5625 -58.144531 29.226562 -57.363281 28.5625 -56.78125 C 27.894531 -56.195312 27.128906 -55.90625 26.265625 -55.90625 C 25.503906 -55.90625 24.734375 -56.003906 23.953125 -56.203125 C 23.171875 -56.410156 22.171875 -56.515625 20.953125 -56.515625 C 18.398438 -56.515625 16.472656 -55.613281 15.171875 -53.8125 C 13.867188 -52.019531 13.21875 -49.878906 13.21875 -47.390625 L 13.21875 -42 L 22.265625 -42 C 23.128906 -42 23.863281 -41.691406 24.46875 -41.078125 C 25.082031 -40.472656 25.390625 -39.707031 25.390625 -38.78125 C 25.390625 -37.851562 25.082031 -37.082031 24.46875 -36.46875 C 23.863281 -35.863281 23.128906 -35.5625 22.265625 -35.5625 L 13.21875 -35.5625 L 13.21875 -2.875 C 13.21875 -1.945312 12.925781 -1.160156 12.34375 -0.515625 C 11.769531 0.117188 10.929688 0.4375 9.828125 0.4375 C 8.722656 0.4375 7.878906 0.117188 7.296875 -0.515625 C 6.722656 -1.160156 6.4375 -1.945312 6.4375 -2.875 Z M 6.4375 -2.875 "/></g></g><g style="fill:#4b52ad;fill-opacity:1;"><g transform="translate(161.43688, 209.591709)"><path style="stroke:none" d="M 6.4375 -8.171875 L 6.4375 -59.65625 C 6.4375 -60.582031 6.769531 -61.378906 7.4375 -62.046875 C 8.101562 -62.710938 8.898438 -63.046875 9.828125 -63.046875 C 10.804688 -63.046875 11.613281 -62.722656 12.25 -62.078125 C 12.894531 -61.441406 13.21875 -60.632812 13.21875 -59.65625 L 13.21875 -8.171875 C 13.21875 -7.242188 13.289062 -6.460938 13.4375 -5.828125 C 13.582031 -5.191406 13.914062 -4.613281 14.4375 -4.09375 C 14.550781 -3.914062 14.679688 -3.679688 14.828125 -3.390625 C 14.972656 -3.097656 15.046875 -2.78125 15.046875 -2.4375 C 15.046875 -1.5625 14.738281 -0.816406 14.125 -0.203125 C 13.519531 0.398438 12.78125 0.703125 11.90625 0.703125 C 11.15625 0.703125 10.359375 0.5 9.515625 0.09375 C 8.679688 -0.3125 7.957031 -1.140625 7.34375 -2.390625 C 6.738281 -3.640625 6.4375 -5.566406 6.4375 -8.171875 Z M 6.4375 -8.171875 "/></g></g><g style="fill:#4b52ad;fill-opacity:1;"><g transform="translate(181.175282, 209.591709)"><path style="stroke:none" d="M 34.515625 -40 L 23.90625 -5.484375 C 22.519531 -0.960938 21.101562 3.019531 19.65625 6.46875 C 18.207031 9.925781 16.363281 12.625 14.125 14.5625 C 11.894531 16.507812 8.894531 17.539062 5.125 17.65625 C 4.144531 17.65625 3.320312 17.332031 2.65625 16.6875 C 1.988281 16.050781 1.65625 15.269531 1.65625 14.34375 C 1.65625 13.53125 1.941406 12.804688 2.515625 12.171875 C 3.097656 11.535156 3.882812 11.1875 4.875 11.125 C 7.59375 11.007812 9.707031 10.109375 11.21875 8.421875 C 12.726562 6.742188 14.117188 3.878906 15.390625 -0.171875 L 1.5625 -40.078125 C 1.507812 -40.203125 1.46875 -40.394531 1.4375 -40.65625 C 1.40625 -40.914062 1.390625 -41.128906 1.390625 -41.296875 C 1.390625 -42.222656 1.722656 -42.976562 2.390625 -43.5625 C 3.054688 -44.144531 3.851562 -44.4375 4.78125 -44.4375 C 6.289062 -44.4375 7.304688 -43.679688 7.828125 -42.171875 L 18.6875 -9.21875 L 28.171875 -42.171875 C 28.460938 -42.921875 28.894531 -43.484375 29.46875 -43.859375 C 30.050781 -44.242188 30.660156 -44.4375 31.296875 -44.4375 C 32.171875 -44.4375 32.953125 -44.113281 33.640625 -43.46875 C 34.335938 -42.832031 34.6875 -42.023438 34.6875 -41.046875 C 34.6875 -40.867188 34.671875 -40.691406 34.640625 -40.515625 C 34.617188 -40.347656 34.578125 -40.175781 34.515625 -40 Z M 34.515625 -40 "/></g></g></g></svg>