<svg xmlns="http://www.w3.org/2000/svg" xmlns:xlink="http://www.w3.org/1999/xlink" width="500" zoomAndPan="magnify" viewBox="0 0 375 374.999991" height="500" preserveAspectRatio="xMidYMid meet" version="1.2"><defs><clipPath id="7ed775adf1"><path d="M 240.597656 191 L 253 191 L 253 204 L 240.597656 204 Z M 240.597656 191 "/></clipPath><clipPath id="9b722af190"><path d="M 240.597656 201 L 245 201 L 245 205.601562 L 240.597656 205.601562 Z M 240.597656 201 "/></clipPath></defs><g id="ff15024f7b"><path style=" stroke:none;fill-rule:nonzero;fill:#21b6b6;fill-opacity:1;" d="M 267.851562 171.980469 L 253.199219 197.363281 L 252.097656 197.414062 L 250.546875 197.480469 L 249.300781 195.078125 L 249.234375 195.082031 L 246.59375 195.199219 L 246.023438 194.105469 L 245.34375 192.792969 L 242.636719 192.914062 L 241.472656 190.675781 L 241.40625 190.554688 L 256.0625 165.175781 L 267.851562 171.980469 "/><path style=" stroke:none;fill-rule:nonzero;fill:#21b6b6;fill-opacity:1;" d="M 268.21875 167.300781 C 268.183594 167.300781 268.144531 167.289062 268.109375 167.269531 L 260.011719 162.59375 C 259.90625 162.535156 259.871094 162.398438 259.929688 162.292969 C 259.992188 162.191406 260.128906 162.152344 260.230469 162.214844 L 268.328125 166.890625 C 268.433594 166.949219 268.472656 167.085938 268.410156 167.191406 C 268.371094 167.261719 268.292969 167.300781 268.21875 167.300781 Z M 267.347656 169.03125 C 267.304688 169.101562 267.234375 169.140625 267.15625 169.140625 C 267.121094 169.140625 267.082031 169.132812 267.046875 169.113281 L 258.949219 164.4375 C 258.84375 164.375 258.804688 164.242188 258.867188 164.136719 C 258.929688 164.03125 259.0625 163.996094 259.167969 164.054688 L 267.265625 168.730469 C 267.371094 168.789062 267.40625 168.925781 267.347656 169.03125 Z M 259.050781 159.992188 L 256.433594 164.523438 L 268.226562 171.332031 L 270.84375 166.800781 L 259.050781 159.992188 "/><path style=" stroke:none;fill-rule:nonzero;fill:#21b6b6;fill-opacity:1;" d="M 273.761719 161.746094 L 271.21875 166.152344 L 259.425781 159.34375 L 261.96875 154.9375 C 262.433594 154.132812 263.59375 153.847656 264.835938 154.238281 C 267.878906 155.203125 270.578125 156.761719 272.933594 158.914062 C 273.894531 159.792969 274.226562 160.941406 273.761719 161.746094 "/><g clip-rule="nonzero" clip-path="url(#7ed775adf1)"><path style=" stroke:none;fill-rule:nonzero;fill:#21b6b6;fill-opacity:1;" d="M 252.597656 198.046875 L 244.511719 203.175781 L 240.765625 201.011719 L 241.164062 191.445312 L 242.277344 193.585938 L 244.984375 193.46875 L 245.097656 193.683594 L 246.234375 195.871094 L 248.875 195.753906 L 248.941406 195.75 L 250.1875 198.15625 L 251.785156 198.082031 L 252.597656 198.046875 "/></g><g clip-rule="nonzero" clip-path="url(#9b722af190)"><path style=" stroke:none;fill-rule:nonzero;fill:#21b6b6;fill-opacity:1;" d="M 244.054688 203.433594 L 241.136719 205.210938 C 240.957031 205.320312 240.632812 205.132812 240.636719 204.921875 L 240.714844 201.503906 L 244.054688 203.433594 "/></g><g style="fill:#21b6b6;fill-opacity:1;"><g transform="translate(95.45701, 199.874987)"><path style="stroke:none" d="M 11.375 -2.984375 C 12.414062 -2.984375 13.3125 -3.113281 14.0625 -3.375 C 14.8125 -3.632812 15.613281 -3.960938 16.46875 -4.359375 C 16.53125 -4.390625 16.617188 -4.421875 16.734375 -4.453125 C 16.847656 -4.492188 16.988281 -4.515625 17.15625 -4.515625 C 17.644531 -4.515625 18.050781 -4.34375 18.375 -4 C 18.695312 -3.65625 18.859375 -3.253906 18.859375 -2.796875 C 18.859375 -2.203125 18.570312 -1.703125 18 -1.296875 C 17.4375 -0.890625 16.726562 -0.5625 15.875 -0.3125 C 15.03125 -0.0703125 14.15625 0.101562 13.25 0.21875 C 12.351562 0.332031 11.578125 0.390625 10.921875 0.390625 C 8.148438 0.390625 6.003906 -0.390625 4.484375 -1.953125 C 2.960938 -3.523438 2.203125 -5.453125 2.203125 -7.734375 L 2.203125 -16.90625 C 2.203125 -19.257812 2.96875 -21.226562 4.5 -22.8125 C 6.039062 -24.394531 8.265625 -25.1875 11.171875 -25.1875 C 13.878906 -25.1875 15.910156 -24.457031 17.265625 -23 C 18.628906 -21.550781 19.3125 -19.617188 19.3125 -17.203125 C 19.3125 -14.941406 18.65625 -13.164062 17.34375 -11.875 C 16.039062 -10.59375 13.9375 -9.953125 11.03125 -9.953125 C 10.3125 -9.953125 9.507812 -9.988281 8.625 -10.0625 C 7.738281 -10.144531 6.875 -10.253906 6.03125 -10.390625 L 6.03125 -7.5 C 6.03125 -6.125 6.476562 -5.023438 7.375 -4.203125 C 8.269531 -3.390625 9.601562 -2.984375 11.375 -2.984375 Z M 15.53125 -17.203125 C 15.53125 -18.796875 15.144531 -19.941406 14.375 -20.640625 C 13.613281 -21.347656 12.515625 -21.703125 11.078125 -21.703125 C 9.472656 -21.703125 8.226562 -21.300781 7.34375 -20.5 C 6.46875 -19.707031 6.03125 -18.625 6.03125 -17.25 L 6.03125 -13.53125 C 6.945312 -13.394531 7.910156 -13.300781 8.921875 -13.25 C 9.929688 -13.207031 10.679688 -13.1875 11.171875 -13.1875 C 12.410156 -13.1875 13.335938 -13.378906 13.953125 -13.765625 C 14.578125 -14.160156 14.992188 -14.664062 15.203125 -15.28125 C 15.421875 -15.90625 15.53125 -16.546875 15.53125 -17.203125 Z M 15.53125 -17.203125 "/></g></g><g style="fill:#21b6b6;fill-opacity:1;"><g transform="translate(116.770314, 199.874987)"><path style="stroke:none" d="M 2.59375 -18.125 C 2.59375 -20.25 3.269531 -21.957031 4.625 -23.25 C 5.976562 -24.539062 7.945312 -25.1875 10.53125 -25.1875 C 11.382812 -25.1875 12.316406 -25.101562 13.328125 -24.9375 C 14.335938 -24.78125 15.207031 -24.492188 15.9375 -24.078125 C 16.675781 -23.671875 17.046875 -23.125 17.046875 -22.4375 C 17.046875 -21.976562 16.882812 -21.566406 16.5625 -21.203125 C 16.238281 -20.847656 15.8125 -20.671875 15.28125 -20.671875 C 15.019531 -20.671875 14.726562 -20.753906 14.40625 -20.921875 C 13.882812 -21.179688 13.351562 -21.394531 12.8125 -21.5625 C 12.269531 -21.726562 11.5625 -21.8125 10.6875 -21.8125 C 7.78125 -21.8125 6.328125 -20.664062 6.328125 -18.375 C 6.328125 -17.625 6.503906 -17.019531 6.859375 -16.5625 C 7.222656 -16.101562 7.8125 -15.660156 8.625 -15.234375 C 9.46875 -14.816406 10.410156 -14.4375 11.453125 -14.09375 C 12.503906 -13.75 13.503906 -13.304688 14.453125 -12.765625 C 15.398438 -12.222656 16.179688 -11.484375 16.796875 -10.546875 C 17.421875 -9.617188 17.734375 -8.359375 17.734375 -6.765625 C 17.734375 -4.578125 17.039062 -2.835938 15.65625 -1.546875 C 14.269531 -0.253906 12.21875 0.390625 9.5 0.390625 C 8.882812 0.390625 8.164062 0.347656 7.34375 0.265625 C 6.53125 0.179688 5.738281 0.0351562 4.96875 -0.171875 C 4.207031 -0.378906 3.570312 -0.671875 3.0625 -1.046875 C 2.550781 -1.421875 2.296875 -1.890625 2.296875 -2.453125 C 2.296875 -2.878906 2.453125 -3.28125 2.765625 -3.65625 C 3.078125 -4.03125 3.523438 -4.21875 4.109375 -4.21875 C 4.273438 -4.21875 4.382812 -4.207031 4.4375 -4.1875 C 4.488281 -4.175781 4.546875 -4.148438 4.609375 -4.109375 C 5.296875 -3.847656 6.035156 -3.59375 6.828125 -3.34375 C 7.628906 -3.101562 8.519531 -2.984375 9.5 -2.984375 C 10.84375 -2.984375 11.929688 -3.269531 12.765625 -3.84375 C 13.597656 -4.414062 14.015625 -5.335938 14.015625 -6.609375 C 14.015625 -7.492188 13.832031 -8.15625 13.46875 -8.59375 C 13.113281 -9.039062 12.691406 -9.394531 12.203125 -9.65625 C 11.421875 -10.082031 10.488281 -10.460938 9.40625 -10.796875 C 8.332031 -11.140625 7.269531 -11.570312 6.21875 -12.09375 C 5.175781 -12.625 4.3125 -13.363281 3.625 -14.3125 C 2.9375 -15.257812 2.59375 -16.53125 2.59375 -18.125 Z M 2.59375 -18.125 "/></g></g><g style="fill:#21b6b6;fill-opacity:1;"><g transform="translate(136.662731, 199.874987)"><path style="stroke:none" d="M 2.203125 -8.625 L 2.203125 -16.015625 C 2.203125 -17.722656 2.503906 -19.253906 3.109375 -20.609375 C 3.710938 -21.960938 4.664062 -23.035156 5.96875 -23.828125 C 7.28125 -24.628906 8.945312 -25.03125 10.96875 -25.03125 C 11.5625 -25.03125 12.238281 -24.984375 13 -24.890625 C 13.769531 -24.796875 14.515625 -24.632812 15.234375 -24.40625 C 15.953125 -24.175781 16.554688 -23.875 17.046875 -23.5 C 17.535156 -23.125 17.78125 -22.640625 17.78125 -22.046875 C 17.78125 -21.617188 17.617188 -21.234375 17.296875 -20.890625 C 16.972656 -20.554688 16.582031 -20.390625 16.125 -20.390625 C 15.894531 -20.390625 15.632812 -20.4375 15.34375 -20.53125 C 14.75 -20.820312 14.148438 -21.082031 13.546875 -21.3125 C 12.941406 -21.539062 12.21875 -21.65625 11.375 -21.65625 C 9.476562 -21.65625 8.113281 -21.164062 7.28125 -20.1875 C 6.445312 -19.207031 6.03125 -17.816406 6.03125 -16.015625 L 6.03125 -8.625 C 6.03125 -6.820312 6.445312 -5.429688 7.28125 -4.453125 C 8.113281 -3.472656 9.476562 -2.984375 11.375 -2.984375 C 12.21875 -2.984375 12.941406 -3.097656 13.546875 -3.328125 C 14.148438 -3.554688 14.75 -3.816406 15.34375 -4.109375 C 15.632812 -4.210938 15.894531 -4.265625 16.125 -4.265625 C 16.582031 -4.265625 16.972656 -4.097656 17.296875 -3.765625 C 17.617188 -3.441406 17.78125 -3.050781 17.78125 -2.59375 C 17.78125 -2.007812 17.535156 -1.53125 17.046875 -1.15625 C 16.554688 -0.78125 15.953125 -0.476562 15.234375 -0.25 C 14.515625 -0.0195312 13.769531 0.140625 13 0.234375 C 12.238281 0.335938 11.5625 0.390625 10.96875 0.390625 C 8.945312 0.390625 7.28125 -0.0078125 5.96875 -0.8125 C 4.664062 -1.613281 3.710938 -2.691406 3.109375 -4.046875 C 2.503906 -5.398438 2.203125 -6.925781 2.203125 -8.625 Z M 2.203125 -8.625 "/></g></g><g style="fill:#21b6b6;fill-opacity:1;"><g transform="translate(155.918192, 199.874987)"><path style="stroke:none" d="M 7.59375 -18.078125 L 7.59375 -1.515625 C 7.59375 -0.992188 7.410156 -0.546875 7.046875 -0.171875 C 6.691406 0.203125 6.238281 0.390625 5.6875 0.390625 C 5.164062 0.390625 4.710938 0.203125 4.328125 -0.171875 C 3.953125 -0.546875 3.765625 -0.992188 3.765625 -1.515625 L 3.765625 -18.078125 C 3.765625 -19.578125 3.503906 -20.722656 2.984375 -21.515625 C 2.890625 -21.671875 2.804688 -21.8125 2.734375 -21.9375 C 2.671875 -22.070312 2.640625 -22.253906 2.640625 -22.484375 C 2.640625 -23.015625 2.816406 -23.429688 3.171875 -23.734375 C 3.535156 -24.046875 3.945312 -24.203125 4.40625 -24.203125 C 4.800781 -24.203125 5.171875 -24.078125 5.515625 -23.828125 C 5.859375 -23.585938 6.144531 -23.273438 6.375 -22.890625 C 7.414062 -23.535156 8.566406 -24.046875 9.828125 -24.421875 C 11.085938 -24.796875 12.171875 -24.984375 13.078125 -24.984375 C 14.054688 -24.984375 14.722656 -24.800781 15.078125 -24.4375 C 15.441406 -24.082031 15.625 -23.644531 15.625 -23.125 C 15.625 -22.507812 15.4375 -22.019531 15.0625 -21.65625 C 14.6875 -21.300781 14.238281 -21.140625 13.71875 -21.171875 C 12.707031 -21.203125 11.726562 -21.144531 10.78125 -21 C 9.832031 -20.851562 8.738281 -20.320312 7.5 -19.40625 C 7.53125 -19.175781 7.550781 -18.945312 7.5625 -18.71875 C 7.582031 -18.488281 7.59375 -18.273438 7.59375 -18.078125 Z M 7.59375 -18.078125 "/></g></g><g style="fill:#21b6b6;fill-opacity:1;"><g transform="translate(172.429875, 199.874987)"><path style="stroke:none" d="M 11.375 -2.984375 C 12.414062 -2.984375 13.3125 -3.113281 14.0625 -3.375 C 14.8125 -3.632812 15.613281 -3.960938 16.46875 -4.359375 C 16.53125 -4.390625 16.617188 -4.421875 16.734375 -4.453125 C 16.847656 -4.492188 16.988281 -4.515625 17.15625 -4.515625 C 17.644531 -4.515625 18.050781 -4.34375 18.375 -4 C 18.695312 -3.65625 18.859375 -3.253906 18.859375 -2.796875 C 18.859375 -2.203125 18.570312 -1.703125 18 -1.296875 C 17.4375 -0.890625 16.726562 -0.5625 15.875 -0.3125 C 15.03125 -0.0703125 14.15625 0.101562 13.25 0.21875 C 12.351562 0.332031 11.578125 0.390625 10.921875 0.390625 C 8.148438 0.390625 6.003906 -0.390625 4.484375 -1.953125 C 2.960938 -3.523438 2.203125 -5.453125 2.203125 -7.734375 L 2.203125 -16.90625 C 2.203125 -19.257812 2.96875 -21.226562 4.5 -22.8125 C 6.039062 -24.394531 8.265625 -25.1875 11.171875 -25.1875 C 13.878906 -25.1875 15.910156 -24.457031 17.265625 -23 C 18.628906 -21.550781 19.3125 -19.617188 19.3125 -17.203125 C 19.3125 -14.941406 18.65625 -13.164062 17.34375 -11.875 C 16.039062 -10.59375 13.9375 -9.953125 11.03125 -9.953125 C 10.3125 -9.953125 9.507812 -9.988281 8.625 -10.0625 C 7.738281 -10.144531 6.875 -10.253906 6.03125 -10.390625 L 6.03125 -7.5 C 6.03125 -6.125 6.476562 -5.023438 7.375 -4.203125 C 8.269531 -3.390625 9.601562 -2.984375 11.375 -2.984375 Z M 15.53125 -17.203125 C 15.53125 -18.796875 15.144531 -19.941406 14.375 -20.640625 C 13.613281 -21.347656 12.515625 -21.703125 11.078125 -21.703125 C 9.472656 -21.703125 8.226562 -21.300781 7.34375 -20.5 C 6.46875 -19.707031 6.03125 -18.625 6.03125 -17.25 L 6.03125 -13.53125 C 6.945312 -13.394531 7.910156 -13.300781 8.921875 -13.25 C 9.929688 -13.207031 10.679688 -13.1875 11.171875 -13.1875 C 12.410156 -13.1875 13.335938 -13.378906 13.953125 -13.765625 C 14.578125 -14.160156 14.992188 -14.664062 15.203125 -15.28125 C 15.421875 -15.90625 15.53125 -16.546875 15.53125 -17.203125 Z M 15.53125 -17.203125 "/></g></g><g style="fill:#21b6b6;fill-opacity:1;"><g transform="translate(193.743179, 199.874987)"><path style="stroke:none" d="M 19.796875 -22.640625 L 13.125 -1.90625 C 12.863281 -1.09375 12.546875 -0.503906 12.171875 -0.140625 C 11.796875 0.210938 11.285156 0.390625 10.640625 0.390625 C 9.984375 0.390625 9.46875 0.210938 9.09375 -0.140625 C 8.71875 -0.503906 8.398438 -1.078125 8.140625 -1.859375 L 1.328125 -22.78125 C 1.128906 -23.375 1.25 -23.894531 1.6875 -24.34375 C 2.132812 -24.800781 2.632812 -25.03125 3.1875 -25.03125 C 4.03125 -25.03125 4.601562 -24.609375 4.90625 -23.765625 L 10.640625 -5.296875 L 16.265625 -23.765625 C 16.398438 -24.117188 16.628906 -24.414062 16.953125 -24.65625 C 17.273438 -24.90625 17.617188 -25.03125 17.984375 -25.03125 C 18.566406 -25.03125 19.054688 -24.796875 19.453125 -24.328125 C 19.847656 -23.859375 19.960938 -23.296875 19.796875 -22.640625 Z M 19.796875 -22.640625 "/></g></g><g style="fill:#21b6b6;fill-opacity:1;"><g transform="translate(214.811498, 199.874987)"><path style="stroke:none" d="M 15.78125 -13.765625 L 15.78125 -16.5625 C 15.78125 -20.0625 14.03125 -21.8125 10.53125 -21.8125 C 9.6875 -21.8125 8.992188 -21.710938 8.453125 -21.515625 C 7.910156 -21.316406 7.363281 -21.070312 6.8125 -20.78125 C 6.75 -20.75 6.582031 -20.675781 6.3125 -20.5625 C 6.050781 -20.445312 5.789062 -20.390625 5.53125 -20.390625 C 5.070312 -20.390625 4.738281 -20.566406 4.53125 -20.921875 C 4.320312 -21.285156 4.203125 -21.644531 4.171875 -22 C 4.097656 -22.75 4.40625 -23.359375 5.09375 -23.828125 C 5.78125 -24.304688 6.660156 -24.648438 7.734375 -24.859375 C 8.816406 -25.078125 9.914062 -25.1875 11.03125 -25.1875 C 14.09375 -25.1875 16.285156 -24.34375 17.609375 -22.65625 C 18.929688 -20.976562 19.59375 -18.519531 19.59375 -15.28125 L 19.59375 -4.515625 C 19.59375 -3.523438 19.890625 -3.03125 20.484375 -3.03125 C 20.546875 -3.03125 20.601562 -3.039062 20.65625 -3.0625 C 20.707031 -3.082031 20.78125 -3.09375 20.875 -3.09375 C 21.332031 -3.09375 21.679688 -2.921875 21.921875 -2.578125 C 22.171875 -2.234375 22.296875 -1.847656 22.296875 -1.421875 C 22.296875 -0.796875 22.066406 -0.359375 21.609375 -0.109375 C 21.148438 0.128906 20.644531 0.25 20.09375 0.25 C 19.269531 0.25 18.539062 0.03125 17.90625 -0.40625 C 17.269531 -0.851562 16.773438 -1.453125 16.421875 -2.203125 C 14.523438 -0.472656 12.285156 0.390625 9.703125 0.390625 C 7.179688 0.390625 5.300781 -0.289062 4.0625 -1.65625 C 2.820312 -3.03125 2.203125 -4.8125 2.203125 -7 L 2.203125 -7.203125 C 2.203125 -12.035156 5.078125 -14.453125 10.828125 -14.453125 C 12.554688 -14.453125 14.207031 -14.222656 15.78125 -13.765625 Z M 10.78125 -11.21875 C 9.4375 -11.21875 8.421875 -11.03125 7.734375 -10.65625 C 7.054688 -10.28125 6.59375 -9.789062 6.34375 -9.1875 C 6.101562 -8.582031 5.984375 -7.90625 5.984375 -7.15625 L 5.984375 -6.953125 C 5.984375 -5.816406 6.289062 -4.878906 6.90625 -4.140625 C 7.53125 -3.398438 8.660156 -3.03125 10.296875 -3.03125 C 12.285156 -3.03125 14.113281 -3.75 15.78125 -5.1875 L 15.78125 -10.484375 C 14.957031 -10.742188 14.101562 -10.929688 13.21875 -11.046875 C 12.34375 -11.160156 11.53125 -11.21875 10.78125 -11.21875 Z M 10.78125 -11.21875 "/></g></g></g></svg>