<svg xmlns="http://www.w3.org/2000/svg" xmlns:xlink="http://www.w3.org/1999/xlink" width="500" zoomAndPan="magnify" viewBox="0 0 375 374.999991" height="500" preserveAspectRatio="xMidYMid meet" version="1.2"><defs><clipPath id="88a3dae0df"><path d="M 259 158.273438 L 261 158.273438 L 261 165 L 259 165 Z M 259 158.273438 "/></clipPath><clipPath id="de48c79d01"><path d="M 275 176 L 282.507812 176 L 282.507812 178 L 275 178 Z M 275 176 "/></clipPath><clipPath id="1a17547b06"><path d="M 237.507812 176 L 244 176 L 244 178 L 237.507812 178 Z M 237.507812 176 "/></clipPath></defs><g id="3e797877dc"><path style=" stroke:none;fill-rule:nonzero;fill:#caf729;fill-opacity:1;" d="M 255.464844 196.507812 C 255.304688 195.9375 255.101562 195.375 254.851562 194.835938 C 254.253906 193.53125 253.421875 192.351562 252.582031 191.1875 C 251.9375 190.292969 251.289062 189.402344 250.71875 188.460938 C 249.992188 187.261719 249.394531 185.984375 248.960938 184.648438 C 248.609375 183.566406 248.367188 182.4375 248.3125 181.300781 C 248.226562 179.425781 248.664062 177.535156 249.53125 175.871094 C 250.160156 174.65625 251.015625 173.558594 252.042969 172.65625 C 253.339844 171.507812 254.902344 170.671875 256.566406 170.1875 C 258.171875 169.71875 259.875 169.578125 261.53125 169.804688 C 263.351562 170.050781 265.109375 170.742188 266.613281 171.792969 C 268.328125 172.992188 269.71875 174.667969 270.511719 176.605469 C 271.246094 178.394531 271.460938 180.378906 271.238281 182.300781 C 271.03125 184.050781 270.464844 185.75 269.632812 187.304688 C 268.875 188.71875 267.90625 190.003906 266.957031 191.296875 C 265.859375 192.785156 264.761719 194.339844 264.300781 196.132812 C 264.171875 196.636719 264.097656 197.152344 264.039062 197.671875 C 263.964844 198.316406 263.917969 198.96875 263.929688 199.617188 C 263.945312 200.441406 264.058594 201.273438 263.957031 202.089844 C 263.8125 203.292969 263.183594 204.449219 262.183594 205.128906 C 261.3125 205.722656 260.203125 205.925781 259.164062 205.757812 C 258.253906 205.613281 257.386719 205.183594 256.757812 204.519531 C 256.234375 203.964844 255.878906 203.257812 255.742188 202.511719 C 255.644531 201.953125 255.664062 201.378906 255.667969 200.8125 C 255.671875 200.109375 255.65625 199.410156 255.667969 198.710938 C 255.679688 198.070312 255.714844 197.417969 255.554688 196.792969 C 255.53125 196.699219 255.5 196.601562 255.464844 196.507812 "/><g clip-rule="nonzero" clip-path="url(#88a3dae0df)"><path style=" stroke:none;fill-rule:nonzero;fill:#caf729;fill-opacity:1;" d="M 259.808594 158.273438 C 259.644531 158.277344 259.484375 158.347656 259.371094 158.464844 C 259.253906 158.585938 259.191406 158.746094 259.191406 158.910156 L 259.191406 164.027344 C 259.191406 164.195312 259.257812 164.355469 259.375 164.472656 C 259.492188 164.589844 259.652344 164.65625 259.820312 164.65625 C 259.984375 164.65625 260.144531 164.589844 260.261719 164.472656 C 260.378906 164.355469 260.445312 164.195312 260.445312 164.027344 L 260.445312 158.910156 C 260.449219 158.742188 260.382812 158.578125 260.261719 158.457031 C 260.140625 158.339844 259.980469 158.273438 259.808594 158.273438 "/></g><path style=" stroke:none;fill-rule:nonzero;fill:#caf729;fill-opacity:1;" d="M 276.621094 164.191406 C 276.503906 164.074219 276.34375 164.011719 276.175781 164.015625 C 276.011719 164.015625 275.851562 164.085938 275.734375 164.203125 L 272.117188 167.820312 C 272 167.941406 271.933594 168.097656 271.933594 168.265625 C 271.933594 168.433594 272 168.589844 272.117188 168.710938 C 272.234375 168.828125 272.394531 168.894531 272.5625 168.894531 C 272.726562 168.894531 272.886719 168.828125 273.003906 168.707031 L 276.621094 165.089844 C 276.742188 164.972656 276.8125 164.808594 276.8125 164.640625 C 276.8125 164.472656 276.742188 164.308594 276.621094 164.191406 "/><path style=" stroke:none;fill-rule:nonzero;fill:#caf729;fill-opacity:1;" d="M 243.015625 164.191406 C 243.132812 164.074219 243.292969 164.011719 243.460938 164.015625 C 243.628906 164.015625 243.785156 164.085938 243.902344 164.203125 L 247.519531 167.820312 C 247.636719 167.941406 247.703125 168.097656 247.703125 168.265625 C 247.703125 168.433594 247.636719 168.589844 247.519531 168.710938 C 247.402344 168.828125 247.242188 168.894531 247.078125 168.894531 C 246.910156 168.894531 246.75 168.828125 246.632812 168.707031 L 243.015625 165.089844 C 242.894531 164.972656 242.824219 164.808594 242.824219 164.640625 C 242.824219 164.472656 242.894531 164.308594 243.015625 164.191406 "/><g clip-rule="nonzero" clip-path="url(#de48c79d01)"><path style=" stroke:none;fill-rule:nonzero;fill:#caf729;fill-opacity:1;" d="M 282.121094 176.703125 C 282.117188 176.535156 282.046875 176.375 281.929688 176.261719 C 281.808594 176.144531 281.648438 176.082031 281.484375 176.085938 L 276.367188 176.085938 C 276.199219 176.082031 276.039062 176.148438 275.921875 176.265625 C 275.804688 176.382812 275.738281 176.542969 275.738281 176.710938 C 275.738281 176.878906 275.804688 177.039062 275.921875 177.15625 C 276.039062 177.273438 276.199219 177.339844 276.367188 177.339844 L 281.484375 177.339844 C 281.652344 177.339844 281.816406 177.273438 281.933594 177.152344 C 282.054688 177.035156 282.121094 176.871094 282.121094 176.703125 "/></g><g clip-rule="nonzero" clip-path="url(#1a17547b06)"><path style=" stroke:none;fill-rule:nonzero;fill:#caf729;fill-opacity:1;" d="M 243.90625 176.703125 C 243.902344 176.535156 243.835938 176.375 243.714844 176.261719 C 243.597656 176.144531 243.4375 176.082031 243.269531 176.085938 L 238.152344 176.085938 C 237.988281 176.082031 237.828125 176.148438 237.710938 176.265625 C 237.589844 176.386719 237.527344 176.542969 237.527344 176.710938 C 237.527344 176.878906 237.589844 177.035156 237.710938 177.15625 C 237.828125 177.273438 237.988281 177.339844 238.152344 177.339844 L 243.269531 177.339844 C 243.441406 177.339844 243.601562 177.273438 243.722656 177.152344 C 243.84375 177.035156 243.910156 176.871094 243.90625 176.703125 "/></g><path style=" stroke:none;fill-rule:nonzero;fill:#caf729;fill-opacity:1;" d="M 238.296875 189.800781 C 238.378906 189.945312 238.519531 190.046875 238.679688 190.089844 C 238.839844 190.128906 239.011719 190.105469 239.15625 190.019531 L 243.585938 187.460938 C 243.730469 187.378906 243.835938 187.242188 243.878906 187.082031 C 243.921875 186.917969 243.898438 186.746094 243.816406 186.605469 C 243.734375 186.460938 243.597656 186.355469 243.433594 186.3125 C 243.273438 186.269531 243.101562 186.292969 242.960938 186.375 L 238.527344 188.933594 C 238.378906 189.015625 238.269531 189.15625 238.226562 189.320312 C 238.183594 189.480469 238.207031 189.65625 238.296875 189.800781 "/><path style=" stroke:none;fill-rule:nonzero;fill:#caf729;fill-opacity:1;" d="M 281.34375 189.800781 C 281.257812 189.945312 281.121094 190.046875 280.957031 190.089844 C 280.796875 190.128906 280.625 190.105469 280.484375 190.019531 L 276.050781 187.460938 C 275.90625 187.378906 275.800781 187.242188 275.757812 187.082031 C 275.714844 186.917969 275.734375 186.746094 275.820312 186.601562 C 275.902344 186.457031 276.039062 186.355469 276.203125 186.308594 C 276.363281 186.269531 276.535156 186.292969 276.679688 186.375 L 281.109375 188.933594 C 281.257812 189.015625 281.367188 189.15625 281.410156 189.320312 C 281.453125 189.480469 281.429688 189.65625 281.34375 189.800781 "/><path style=" stroke:none;fill-rule:nonzero;fill:#caf729;fill-opacity:1;" d="M 260.300781 169.707031 C 262.085938 170.566406 263.644531 171.898438 264.742188 173.550781 C 265.910156 175.304688 266.558594 177.378906 266.714844 179.480469 C 266.875 181.578125 266.550781 183.703125 265.886719 185.699219 C 264.933594 188.578125 263.234375 191.246094 260.84375 193.113281 C 259.199219 194.398438 257.238281 195.261719 255.1875 195.65625 C 255.292969 195.9375 255.382812 196.222656 255.464844 196.507812 C 255.5 196.601562 255.53125 196.699219 255.554688 196.796875 C 255.703125 197.378906 255.683594 197.988281 255.667969 198.589844 L 263.957031 198.589844 C 263.976562 198.285156 264.003906 197.976562 264.039062 197.671875 C 264.097656 197.152344 264.171875 196.636719 264.304688 196.132812 C 264.761719 194.339844 265.859375 192.785156 266.957031 191.296875 C 267.90625 190.003906 268.875 188.71875 269.632812 187.304688 C 270.464844 185.75 271.03125 184.050781 271.238281 182.300781 C 271.460938 180.378906 271.246094 178.394531 270.511719 176.605469 C 269.71875 174.667969 268.332031 172.992188 266.613281 171.792969 C 265.109375 170.742188 263.351562 170.050781 261.53125 169.804688 C 261.125 169.75 260.714844 169.71875 260.300781 169.707031 "/><path style=" stroke:none;fill-rule:nonzero;fill:#caf729;fill-opacity:1;" d="M 255.644531 197.34375 C 255.691406 197.796875 255.675781 198.253906 255.667969 198.710938 C 255.65625 199.410156 255.671875 200.109375 255.667969 200.8125 C 255.664062 201.378906 255.644531 201.953125 255.742188 202.511719 C 255.878906 203.257812 256.234375 203.964844 256.757812 204.519531 C 257.386719 205.183594 258.253906 205.613281 259.164062 205.761719 C 260.203125 205.925781 261.3125 205.722656 262.183594 205.128906 C 263.183594 204.449219 263.8125 203.292969 263.957031 202.089844 C 264.058594 201.273438 263.945312 200.445312 263.929688 199.617188 C 263.917969 198.96875 263.964844 198.316406 264.039062 197.671875 C 264.050781 197.5625 264.070312 197.453125 264.082031 197.34375 L 255.644531 197.34375 "/><path style=" stroke:none;fill-rule:nonzero;fill:#caf729;fill-opacity:1;" d="M 262.386719 197.34375 C 262.402344 198.40625 262.308594 199.46875 262.09375 200.507812 C 261.9375 201.261719 261.722656 202.003906 261.378906 202.695312 C 261.039062 203.382812 260.566406 204.011719 259.957031 204.480469 C 259.347656 204.953125 258.601562 205.242188 257.832031 205.320312 C 258.25 205.535156 258.699219 205.683594 259.164062 205.761719 C 260.203125 205.925781 261.3125 205.722656 262.183594 205.128906 C 263.183594 204.449219 263.8125 203.292969 263.957031 202.089844 C 264.058594 201.273438 263.945312 200.445312 263.929688 199.617188 C 263.917969 198.96875 263.964844 198.316406 264.039062 197.671875 C 264.050781 197.5625 264.070312 197.453125 264.082031 197.34375 L 262.386719 197.34375 "/><path style=" stroke:none;fill-rule:nonzero;fill:#caf729;fill-opacity:1;" d="M 256.539062 198.476562 C 256.402344 198.476562 256.273438 198.527344 256.179688 198.621094 C 256.085938 198.71875 256.03125 198.847656 256.03125 198.980469 C 256.03125 199.117188 256.085938 199.246094 256.179688 199.339844 C 256.273438 199.433594 256.402344 199.488281 256.539062 199.488281 L 263.101562 199.488281 C 263.234375 199.488281 263.363281 199.433594 263.457031 199.339844 C 263.554688 199.246094 263.609375 199.117188 263.609375 198.980469 C 263.609375 198.847656 263.554688 198.71875 263.457031 198.621094 C 263.363281 198.527344 263.234375 198.476562 263.101562 198.476562 L 256.539062 198.476562 "/><path style=" stroke:none;fill-rule:nonzero;fill:#caf729;fill-opacity:1;" d="M 256.539062 200.320312 C 256.257812 200.320312 256.03125 200.546875 256.03125 200.824219 C 256.03125 201.105469 256.257812 201.332031 256.539062 201.332031 L 263.101562 201.332031 C 263.234375 201.332031 263.363281 201.277344 263.457031 201.183594 C 263.554688 201.089844 263.605469 200.960938 263.605469 200.824219 C 263.605469 200.691406 263.554688 200.5625 263.457031 200.46875 C 263.363281 200.371094 263.234375 200.320312 263.101562 200.320312 L 256.539062 200.320312 "/><path style=" stroke:none;fill-rule:nonzero;fill:#caf729;fill-opacity:1;" d="M 256.539062 202.109375 C 256.402344 202.109375 256.273438 202.160156 256.175781 202.257812 C 256.082031 202.351562 256.027344 202.480469 256.027344 202.617188 C 256.027344 202.75 256.082031 202.878906 256.175781 202.976562 C 256.273438 203.070312 256.402344 203.121094 256.539062 203.121094 L 263.101562 203.121094 C 263.234375 203.121094 263.363281 203.070312 263.460938 202.976562 C 263.554688 202.878906 263.609375 202.75 263.609375 202.617188 C 263.609375 202.480469 263.554688 202.351562 263.460938 202.257812 C 263.363281 202.160156 263.234375 202.109375 263.101562 202.109375 L 256.539062 202.109375 "/><g style="fill:#caf729;fill-opacity:1;"><g transform="translate(137.490231, 199.874987)"><path style="stroke:none" d="M 3.625 -4.609375 L 3.625 -33.609375 C 3.625 -34.128906 3.8125 -34.578125 4.1875 -34.953125 C 4.5625 -35.335938 5.007812 -35.53125 5.53125 -35.53125 C 6.09375 -35.53125 6.550781 -35.347656 6.90625 -34.984375 C 7.269531 -34.628906 7.453125 -34.171875 7.453125 -33.609375 L 7.453125 -4.609375 C 7.453125 -4.085938 7.488281 -3.644531 7.5625 -3.28125 C 7.644531 -2.925781 7.835938 -2.597656 8.140625 -2.296875 C 8.203125 -2.203125 8.273438 -2.070312 8.359375 -1.90625 C 8.441406 -1.75 8.484375 -1.570312 8.484375 -1.375 C 8.484375 -0.882812 8.3125 -0.46875 7.96875 -0.125 C 7.625 0.21875 7.207031 0.390625 6.71875 0.390625 C 6.289062 0.390625 5.835938 0.273438 5.359375 0.046875 C 4.890625 -0.179688 4.484375 -0.644531 4.140625 -1.34375 C 3.796875 -2.050781 3.625 -3.140625 3.625 -4.609375 Z M 3.625 -4.609375 "/></g></g><g style="fill:#caf729;fill-opacity:1;"><g transform="translate(148.661334, 199.874987)"><path style="stroke:none" d="M 17.25 -6.03125 L 17.25 -23.171875 C 17.25 -23.703125 17.410156 -24.144531 17.734375 -24.5 C 18.066406 -24.851562 18.539062 -25.03125 19.15625 -25.03125 C 19.8125 -25.03125 20.289062 -24.851562 20.59375 -24.5 C 20.90625 -24.144531 21.0625 -23.703125 21.0625 -23.171875 L 21.0625 -6.03125 C 21.0625 -5.144531 21.109375 -4.5 21.203125 -4.09375 C 21.304688 -3.6875 21.421875 -3.398438 21.546875 -3.234375 C 21.679688 -3.066406 21.816406 -2.851562 21.953125 -2.59375 C 22.015625 -2.5 22.085938 -2.367188 22.171875 -2.203125 C 22.253906 -2.035156 22.296875 -1.835938 22.296875 -1.609375 C 22.296875 -1.160156 22.125 -0.765625 21.78125 -0.421875 C 21.4375 -0.078125 21.003906 0.09375 20.484375 0.09375 C 20.023438 0.09375 19.625 -0.0390625 19.28125 -0.3125 C 18.9375 -0.59375 18.632812 -0.945312 18.375 -1.375 C 17.300781 -0.75 16.15625 -0.296875 14.9375 -0.015625 C 13.726562 0.253906 12.554688 0.390625 11.421875 0.390625 C 8.835938 0.390625 6.890625 -0.457031 5.578125 -2.15625 C 4.273438 -3.851562 3.625 -6.09375 3.625 -8.875 L 3.625 -23.171875 C 3.625 -23.703125 3.785156 -24.144531 4.109375 -24.5 C 4.441406 -24.851562 4.914062 -25.03125 5.53125 -25.03125 C 6.15625 -25.03125 6.628906 -24.851562 6.953125 -24.5 C 7.285156 -24.144531 7.453125 -23.703125 7.453125 -23.171875 L 7.453125 -8.875 C 7.453125 -7.007812 7.832031 -5.566406 8.59375 -4.546875 C 9.363281 -3.535156 10.484375 -3.03125 11.953125 -3.03125 C 13.847656 -3.03125 15.644531 -3.570312 17.34375 -4.65625 C 17.3125 -4.914062 17.285156 -5.160156 17.265625 -5.390625 C 17.253906 -5.617188 17.25 -5.832031 17.25 -6.03125 Z M 17.25 -6.03125 "/></g></g><g style="fill:#caf729;fill-opacity:1;"><g transform="translate(173.600343, 199.874987)"><path style="stroke:none" d="M 7.453125 -19.40625 L 7.453125 -7.34375 C 7.453125 -6.039062 7.90625 -5.015625 8.8125 -4.265625 C 9.726562 -3.515625 10.988281 -3.140625 12.59375 -3.140625 C 14.351562 -3.140625 15.648438 -3.601562 16.484375 -4.53125 C 17.316406 -5.457031 17.734375 -6.722656 17.734375 -8.328125 L 17.734375 -17.546875 C 17.734375 -18.878906 17.359375 -19.929688 16.609375 -20.703125 C 15.859375 -21.472656 14.664062 -21.859375 13.03125 -21.859375 C 11.820312 -21.859375 10.757812 -21.632812 9.84375 -21.1875 C 8.9375 -20.75 8.140625 -20.15625 7.453125 -19.40625 Z M 3.625 -7.34375 L 3.625 -33.65625 C 3.625 -34.144531 3.785156 -34.578125 4.109375 -34.953125 C 4.441406 -35.335938 4.914062 -35.53125 5.53125 -35.53125 C 6.15625 -35.53125 6.628906 -35.335938 6.953125 -34.953125 C 7.285156 -34.578125 7.453125 -34.144531 7.453125 -33.65625 L 7.453125 -23.171875 C 8.359375 -23.828125 9.34375 -24.328125 10.40625 -24.671875 C 11.46875 -25.015625 12.65625 -25.1875 13.96875 -25.1875 C 15.832031 -25.1875 17.316406 -24.847656 18.421875 -24.171875 C 19.535156 -23.503906 20.335938 -22.59375 20.828125 -21.4375 C 21.316406 -20.28125 21.5625 -18.984375 21.5625 -17.546875 L 21.5625 -8.328125 C 21.5625 -6.691406 21.222656 -5.210938 20.546875 -3.890625 C 19.878906 -2.566406 18.882812 -1.519531 17.5625 -0.75 C 16.238281 0.0078125 14.582031 0.390625 12.59375 0.390625 C 10.695312 0.390625 9.078125 0.046875 7.734375 -0.640625 C 6.398438 -1.328125 5.378906 -2.253906 4.671875 -3.421875 C 3.972656 -4.597656 3.625 -5.90625 3.625 -7.34375 Z M 3.625 -7.34375 "/></g></g><g style="fill:#caf729;fill-opacity:1;"><g transform="translate(197.363449, 199.874987)"><path style="stroke:none" d="M 7.59375 -18.078125 L 7.59375 -1.515625 C 7.59375 -0.992188 7.410156 -0.546875 7.046875 -0.171875 C 6.691406 0.203125 6.238281 0.390625 5.6875 0.390625 C 5.164062 0.390625 4.710938 0.203125 4.328125 -0.171875 C 3.953125 -0.546875 3.765625 -0.992188 3.765625 -1.515625 L 3.765625 -18.078125 C 3.765625 -19.578125 3.503906 -20.722656 2.984375 -21.515625 C 2.890625 -21.671875 2.804688 -21.8125 2.734375 -21.9375 C 2.671875 -22.070312 2.640625 -22.253906 2.640625 -22.484375 C 2.640625 -23.015625 2.816406 -23.429688 3.171875 -23.734375 C 3.535156 -24.046875 3.945312 -24.203125 4.40625 -24.203125 C 4.800781 -24.203125 5.171875 -24.078125 5.515625 -23.828125 C 5.859375 -23.585938 6.144531 -23.273438 6.375 -22.890625 C 7.414062 -23.535156 8.566406 -24.046875 9.828125 -24.421875 C 11.085938 -24.796875 12.171875 -24.984375 13.078125 -24.984375 C 14.054688 -24.984375 14.722656 -24.800781 15.078125 -24.4375 C 15.441406 -24.082031 15.625 -23.644531 15.625 -23.125 C 15.625 -22.507812 15.4375 -22.019531 15.0625 -21.65625 C 14.6875 -21.300781 14.238281 -21.140625 13.71875 -21.171875 C 12.707031 -21.203125 11.726562 -21.144531 10.78125 -21 C 9.832031 -20.851562 8.738281 -20.320312 7.5 -19.40625 C 7.53125 -19.175781 7.550781 -18.945312 7.5625 -18.71875 C 7.582031 -18.488281 7.59375 -18.273438 7.59375 -18.078125 Z M 7.59375 -18.078125 "/></g></g><g style="fill:#caf729;fill-opacity:1;"><g transform="translate(213.875132, 199.874987)"><path style="stroke:none" d="M 15.78125 -13.765625 L 15.78125 -16.5625 C 15.78125 -20.0625 14.03125 -21.8125 10.53125 -21.8125 C 9.6875 -21.8125 8.992188 -21.710938 8.453125 -21.515625 C 7.910156 -21.316406 7.363281 -21.070312 6.8125 -20.78125 C 6.75 -20.75 6.582031 -20.675781 6.3125 -20.5625 C 6.050781 -20.445312 5.789062 -20.390625 5.53125 -20.390625 C 5.070312 -20.390625 4.738281 -20.566406 4.53125 -20.921875 C 4.320312 -21.285156 4.203125 -21.644531 4.171875 -22 C 4.097656 -22.75 4.40625 -23.359375 5.09375 -23.828125 C 5.78125 -24.304688 6.660156 -24.648438 7.734375 -24.859375 C 8.816406 -25.078125 9.914062 -25.1875 11.03125 -25.1875 C 14.09375 -25.1875 16.285156 -24.34375 17.609375 -22.65625 C 18.929688 -20.976562 19.59375 -18.519531 19.59375 -15.28125 L 19.59375 -4.515625 C 19.59375 -3.523438 19.890625 -3.03125 20.484375 -3.03125 C 20.546875 -3.03125 20.601562 -3.039062 20.65625 -3.0625 C 20.707031 -3.082031 20.78125 -3.09375 20.875 -3.09375 C 21.332031 -3.09375 21.679688 -2.921875 21.921875 -2.578125 C 22.171875 -2.234375 22.296875 -1.847656 22.296875 -1.421875 C 22.296875 -0.796875 22.066406 -0.359375 21.609375 -0.109375 C 21.148438 0.128906 20.644531 0.25 20.09375 0.25 C 19.269531 0.25 18.539062 0.03125 17.90625 -0.40625 C 17.269531 -0.851562 16.773438 -1.453125 16.421875 -2.203125 C 14.523438 -0.472656 12.285156 0.390625 9.703125 0.390625 C 7.179688 0.390625 5.300781 -0.289062 4.0625 -1.65625 C 2.820312 -3.03125 2.203125 -4.8125 2.203125 -7 L 2.203125 -7.203125 C 2.203125 -12.035156 5.078125 -14.453125 10.828125 -14.453125 C 12.554688 -14.453125 14.207031 -14.222656 15.78125 -13.765625 Z M 10.78125 -11.21875 C 9.4375 -11.21875 8.421875 -11.03125 7.734375 -10.65625 C 7.054688 -10.28125 6.59375 -9.789062 6.34375 -9.1875 C 6.101562 -8.582031 5.984375 -7.90625 5.984375 -7.15625 L 5.984375 -6.953125 C 5.984375 -5.816406 6.289062 -4.878906 6.90625 -4.140625 C 7.53125 -3.398438 8.660156 -3.03125 10.296875 -3.03125 C 12.285156 -3.03125 14.113281 -3.75 15.78125 -5.1875 L 15.78125 -10.484375 C 14.957031 -10.742188 14.101562 -10.929688 13.21875 -11.046875 C 12.34375 -11.160156 11.53125 -11.21875 10.78125 -11.21875 Z M 10.78125 -11.21875 "/></g></g></g></svg>