<svg xmlns="http://www.w3.org/2000/svg" xmlns:xlink="http://www.w3.org/1999/xlink" width="500" zoomAndPan="magnify" viewBox="0 0 375 374.999991" height="500" preserveAspectRatio="xMidYMid meet" version="1.2"><defs><clipPath id="1a290698d4"><path d="M 112.5 162 L 213 162 L 213 262.5 L 112.5 262.5 Z M 112.5 162 "/></clipPath><clipPath id="d59d901e61"><path d="M 162 112.5 L 262.5 112.5 L 262.5 213 L 162 213 Z M 162 112.5 "/></clipPath></defs><g id="cbdcec39b3"><g clip-rule="nonzero" clip-path="url(#1a290698d4)"><path style=" stroke:none;fill-rule:nonzero;fill:#caf729;fill-opacity:1;" d="M 212.507812 212.507812 L 212.507812 237.824219 C 212.507812 251.460938 201.457031 262.511719 187.820312 262.511719 C 181.011719 262.511719 174.847656 259.753906 170.378906 255.285156 C 165.90625 250.816406 163.148438 244.632812 163.148438 237.824219 L 163.148438 211.859375 L 137.167969 211.859375 C 123.550781 211.863281 112.5 200.8125 112.5 187.175781 C 112.5 173.539062 123.550781 162.503906 137.167969 162.503906 L 162.503906 162.503906 L 162.503906 187.554688 C 162.503906 201.34375 173.671875 212.507812 187.441406 212.507812 L 212.511719 212.507812 Z M 212.507812 212.507812 "/></g><path style=" stroke:none;fill-rule:nonzero;fill:#21b6b6;fill-opacity:1;" d="M 212.507812 187.441406 L 212.507812 212.511719 L 187.4375 212.511719 C 173.667969 212.511719 162.5 201.34375 162.5 187.554688 L 162.5 162.507812 L 187.570312 162.507812 C 201.339844 162.507812 212.503906 173.671875 212.503906 187.445312 Z M 212.507812 187.441406 "/><g clip-rule="nonzero" clip-path="url(#d59d901e61)"><path style=" stroke:none;fill-rule:nonzero;fill:#888dda;fill-opacity:1;" d="M 262.511719 187.820312 C 262.511719 201.457031 251.460938 212.507812 237.824219 212.507812 L 212.507812 212.507812 L 212.507812 187.4375 C 212.507812 173.667969 201.34375 162.5 187.570312 162.5 L 162.503906 162.5 L 162.503906 137.164062 C 162.503906 123.550781 173.554688 112.5 187.171875 112.5 C 193.984375 112.5 200.164062 115.257812 204.632812 119.730469 C 209.105469 124.195312 211.863281 130.359375 211.863281 137.171875 L 211.863281 163.152344 L 237.824219 163.152344 C 251.460938 163.152344 262.511719 174.203125 262.511719 187.824219 Z M 262.511719 187.820312 "/></g></g></svg>