<svg xmlns="http://www.w3.org/2000/svg" xmlns:xlink="http://www.w3.org/1999/xlink" width="500" zoomAndPan="magnify" viewBox="0 0 375 374.999991" height="500" preserveAspectRatio="xMidYMid meet" version="1.2"><defs><clipPath id="5bddf32cc2"><path d="M 232 197 L 266.773438 197 L 266.773438 232 L 232 232 Z M 232 197 "/></clipPath><clipPath id="6803c937d3"><path d="M 232 197 L 266.773438 197 L 266.773438 232.152344 L 232 232.152344 Z M 232 197 "/></clipPath><clipPath id="da1039ef2c"><path d="M 230.023438 195.402344 L 265 195.402344 L 265 230 L 230.023438 230 Z M 230.023438 195.402344 "/></clipPath></defs><g id="683e184a44"><g clip-rule="nonzero" clip-path="url(#5bddf32cc2)"><path style=" stroke:none;fill-rule:nonzero;fill:#ffffff;fill-opacity:1;" d="M 263.933594 231.929688 L 234.691406 231.929688 C 233.292969 231.929688 232.160156 230.792969 232.160156 229.394531 L 232.160156 200.15625 C 232.160156 198.757812 233.292969 197.621094 234.691406 197.621094 L 263.933594 197.621094 C 265.332031 197.621094 266.464844 198.757812 266.464844 200.15625 L 266.464844 229.394531 C 266.464844 230.792969 265.332031 231.929688 263.933594 231.929688 Z M 263.933594 231.929688 "/></g><g clip-rule="nonzero" clip-path="url(#6803c937d3)"><path style=" stroke:none;fill-rule:nonzero;fill:#ffffff;fill-opacity:1;" d="M 263.933594 232.007812 L 234.691406 232.007812 C 233.25 232.007812 232.082031 230.835938 232.082031 229.394531 L 232.082031 200.15625 C 232.082031 198.714844 233.253906 197.542969 234.691406 197.542969 L 263.933594 197.542969 C 265.375 197.542969 266.542969 198.714844 266.542969 200.15625 L 266.542969 229.394531 C 266.542969 230.835938 265.371094 232.007812 263.933594 232.007812 Z M 234.691406 197.699219 C 233.339844 197.699219 232.238281 198.800781 232.238281 200.15625 L 232.238281 229.394531 C 232.238281 230.75 233.339844 231.851562 234.691406 231.851562 L 263.933594 231.851562 C 265.285156 231.851562 266.390625 230.75 266.390625 229.394531 L 266.390625 200.15625 C 266.390625 198.800781 265.285156 197.699219 263.933594 197.699219 Z M 234.691406 197.699219 "/></g><g clip-rule="nonzero" clip-path="url(#da1039ef2c)"><path style=" stroke:none;fill-rule:nonzero;fill:#888dda;fill-opacity:1;" d="M 261.875 229.835938 L 232.636719 229.835938 C 231.238281 229.835938 230.101562 228.699219 230.101562 227.300781 L 230.101562 198.0625 C 230.101562 196.664062 231.238281 195.527344 232.636719 195.527344 L 261.875 195.527344 C 263.273438 195.527344 264.410156 196.664062 264.410156 198.0625 L 264.410156 227.300781 C 264.410156 228.699219 263.273438 229.835938 261.875 229.835938 Z M 261.875 229.835938 "/><path style=" stroke:none;fill-rule:nonzero;fill:#ffffff;fill-opacity:1;" d="M 261.875 229.914062 L 232.636719 229.914062 C 231.195312 229.914062 230.023438 228.742188 230.023438 227.300781 L 230.023438 198.0625 C 230.023438 196.621094 231.195312 195.449219 232.636719 195.449219 L 261.875 195.449219 C 263.316406 195.449219 264.488281 196.621094 264.488281 198.0625 L 264.488281 227.300781 C 264.488281 228.742188 263.316406 229.914062 261.875 229.914062 Z M 232.636719 195.605469 C 231.28125 195.605469 230.179688 196.707031 230.179688 198.0625 L 230.179688 227.300781 C 230.179688 228.65625 231.28125 229.757812 232.636719 229.757812 L 261.875 229.757812 C 263.230469 229.757812 264.332031 228.65625 264.332031 227.300781 L 264.332031 198.0625 C 264.332031 196.707031 263.230469 195.605469 261.875 195.605469 Z M 232.636719 195.605469 "/></g><path style=" stroke:none;fill-rule:nonzero;fill:#ffffff;fill-opacity:1;" d="M 260.429688 204.660156 L 257.996094 202.226562 C 257.605469 201.832031 256.96875 201.832031 256.578125 202.226562 L 243.363281 215.441406 C 242.972656 215.832031 242.339844 215.832031 241.949219 215.441406 L 237.929688 211.421875 C 237.539062 211.03125 236.90625 211.03125 236.511719 211.421875 L 234.078125 213.855469 C 233.6875 214.246094 233.6875 214.878906 234.078125 215.269531 L 238.804688 220 L 241.949219 223.140625 C 242.339844 223.53125 242.972656 223.53125 243.363281 223.140625 L 246.507812 220 L 260.429688 206.074219 C 260.820312 205.683594 260.820312 205.050781 260.429688 204.660156 Z M 260.429688 204.660156 "/><path style=" stroke:none;fill-rule:nonzero;fill:#ffffff;fill-opacity:1;" d="M 242.65625 223.507812 C 242.382812 223.507812 242.105469 223.402344 241.894531 223.191406 L 234.027344 215.324219 C 233.824219 215.121094 233.710938 214.847656 233.710938 214.5625 C 233.710938 214.273438 233.824219 214.003906 234.027344 213.800781 L 236.460938 211.367188 C 236.664062 211.160156 236.9375 211.050781 237.222656 211.050781 C 237.511719 211.050781 237.78125 211.160156 237.984375 211.367188 L 242.003906 215.382812 C 242.363281 215.746094 242.949219 215.746094 243.308594 215.382812 L 256.523438 202.167969 C 256.726562 201.964844 257 201.855469 257.289062 201.855469 C 257.574219 201.855469 257.847656 201.964844 258.050781 202.167969 L 260.484375 204.601562 C 260.6875 204.804688 260.796875 205.078125 260.796875 205.367188 C 260.796875 205.652344 260.6875 205.925781 260.484375 206.128906 L 243.417969 223.191406 C 243.210938 223.402344 242.933594 223.507812 242.65625 223.507812 Z M 237.222656 211.207031 C 236.988281 211.207031 236.75 211.296875 236.570312 211.476562 L 234.136719 213.910156 C 233.773438 214.269531 233.773438 214.855469 234.136719 215.214844 L 242.003906 223.082031 C 242.367188 223.441406 242.949219 223.441406 243.3125 223.082031 L 260.375 206.019531 C 260.734375 205.660156 260.734375 205.074219 260.375 204.714844 L 257.941406 202.28125 C 257.582031 201.921875 256.996094 201.921875 256.636719 202.28125 L 243.417969 215.496094 C 243 215.917969 242.316406 215.917969 241.894531 215.496094 L 237.875 211.476562 C 237.695312 211.296875 237.460938 211.207031 237.222656 211.207031 Z M 237.222656 211.207031 "/><g style="fill:#888dda;fill-opacity:1;"><g transform="translate(146.296869, 223.449991)"><path style="stroke:none" d="M 3.703125 -10.15625 L 3.703125 -31.046875 C 3.703125 -31.578125 3.867188 -32.023438 4.203125 -32.390625 C 4.535156 -32.765625 5.019531 -32.953125 5.65625 -32.953125 C 6.28125 -32.953125 6.757812 -32.765625 7.09375 -32.390625 C 7.425781 -32.023438 7.59375 -31.578125 7.59375 -31.046875 L 7.59375 -24.15625 L 12.796875 -24.15625 C 13.296875 -24.15625 13.71875 -23.976562 14.0625 -23.625 C 14.414062 -23.269531 14.59375 -22.828125 14.59375 -22.296875 C 14.59375 -21.765625 14.414062 -21.320312 14.0625 -20.96875 C 13.71875 -20.625 13.296875 -20.453125 12.796875 -20.453125 L 7.59375 -20.453125 L 7.59375 -10.5 C 7.59375 -8.800781 7.6875 -7.429688 7.875 -6.390625 C 8.0625 -5.359375 8.445312 -4.609375 9.03125 -4.140625 C 9.613281 -3.679688 10.503906 -3.453125 11.703125 -3.453125 C 11.867188 -3.453125 12.035156 -3.457031 12.203125 -3.46875 C 12.367188 -3.488281 12.519531 -3.5 12.65625 -3.5 C 13.21875 -3.5 13.789062 -3.398438 14.375 -3.203125 C 14.957031 -3.003906 15.25 -2.503906 15.25 -1.703125 C 15.25 -0.867188 14.945312 -0.34375 14.34375 -0.125 C 13.75 0.09375 13.101562 0.203125 12.40625 0.203125 C 10.070312 0.203125 8.28125 -0.175781 7.03125 -0.9375 C 5.78125 -1.707031 4.910156 -2.859375 4.421875 -4.390625 C 3.941406 -5.929688 3.703125 -7.851562 3.703125 -10.15625 Z M 3.703125 -10.15625 "/></g></g><g style="fill:#888dda;fill-opacity:1;"><g transform="translate(162.34438, 223.449991)"><path style="stroke:none" d="M 16.09375 -14.046875 L 16.09375 -16.90625 C 16.09375 -20.46875 14.3125 -22.25 10.75 -22.25 C 9.882812 -22.25 9.175781 -22.148438 8.625 -21.953125 C 8.070312 -21.753906 7.515625 -21.503906 6.953125 -21.203125 C 6.878906 -21.171875 6.707031 -21.09375 6.4375 -20.96875 C 6.175781 -20.851562 5.914062 -20.796875 5.65625 -20.796875 C 5.1875 -20.796875 4.84375 -20.976562 4.625 -21.34375 C 4.40625 -21.71875 4.28125 -22.085938 4.25 -22.453125 C 4.1875 -23.210938 4.503906 -23.832031 5.203125 -24.3125 C 5.898438 -24.800781 6.796875 -25.15625 7.890625 -25.375 C 8.992188 -25.59375 10.113281 -25.703125 11.25 -25.703125 C 14.382812 -25.703125 16.625 -24.84375 17.96875 -23.125 C 19.320312 -21.40625 20 -18.894531 20 -15.59375 L 20 -4.59375 C 20 -3.59375 20.300781 -3.09375 20.90625 -3.09375 C 20.96875 -3.09375 21.023438 -3.101562 21.078125 -3.125 C 21.128906 -3.144531 21.203125 -3.15625 21.296875 -3.15625 C 21.765625 -3.15625 22.125 -2.976562 22.375 -2.625 C 22.625 -2.269531 22.75 -1.878906 22.75 -1.453125 C 22.75 -0.816406 22.515625 -0.375 22.046875 -0.125 C 21.578125 0.125 21.0625 0.25 20.5 0.25 C 19.664062 0.25 18.921875 0.0234375 18.265625 -0.421875 C 17.617188 -0.867188 17.113281 -1.476562 16.75 -2.25 C 14.8125 -0.476562 12.53125 0.40625 9.90625 0.40625 C 7.332031 0.40625 5.410156 -0.289062 4.140625 -1.6875 C 2.878906 -3.09375 2.25 -4.914062 2.25 -7.15625 L 2.25 -7.34375 C 2.25 -12.28125 5.179688 -14.75 11.046875 -14.75 C 12.816406 -14.75 14.5 -14.515625 16.09375 -14.046875 Z M 11 -11.453125 C 9.632812 -11.453125 8.597656 -11.257812 7.890625 -10.875 C 7.191406 -10.488281 6.71875 -9.988281 6.46875 -9.375 C 6.21875 -8.757812 6.09375 -8.066406 6.09375 -7.296875 L 6.09375 -7.09375 C 6.09375 -5.925781 6.410156 -4.96875 7.046875 -4.21875 C 7.679688 -3.46875 8.832031 -3.09375 10.5 -3.09375 C 12.53125 -3.09375 14.394531 -3.828125 16.09375 -5.296875 L 16.09375 -10.703125 C 15.257812 -10.960938 14.394531 -11.148438 13.5 -11.265625 C 12.601562 -11.390625 11.769531 -11.453125 11 -11.453125 Z M 11 -11.453125 "/></g></g><g style="fill:#888dda;fill-opacity:1;"><g transform="translate(186.440647, 223.449991)"><path style="stroke:none" d="M 2.65625 -18.5 C 2.65625 -20.664062 3.34375 -22.40625 4.71875 -23.71875 C 6.101562 -25.039062 8.113281 -25.703125 10.75 -25.703125 C 11.613281 -25.703125 12.5625 -25.617188 13.59375 -25.453125 C 14.632812 -25.285156 15.53125 -24.992188 16.28125 -24.578125 C 17.03125 -24.160156 17.40625 -23.601562 17.40625 -22.90625 C 17.40625 -22.4375 17.238281 -22.015625 16.90625 -21.640625 C 16.570312 -21.273438 16.132812 -21.09375 15.59375 -21.09375 C 15.332031 -21.09375 15.035156 -21.175781 14.703125 -21.34375 C 14.171875 -21.613281 13.628906 -21.832031 13.078125 -22 C 12.523438 -22.164062 11.800781 -22.25 10.90625 -22.25 C 7.9375 -22.25 6.453125 -21.082031 6.453125 -18.75 C 6.453125 -17.976562 6.632812 -17.359375 7 -16.890625 C 7.363281 -16.429688 7.960938 -15.984375 8.796875 -15.546875 C 9.660156 -15.117188 10.625 -14.726562 11.6875 -14.375 C 12.757812 -14.019531 13.78125 -13.566406 14.75 -13.015625 C 15.71875 -12.472656 16.515625 -11.722656 17.140625 -10.765625 C 17.773438 -9.816406 18.09375 -8.53125 18.09375 -6.90625 C 18.09375 -4.664062 17.382812 -2.882812 15.96875 -1.5625 C 14.550781 -0.25 12.460938 0.40625 9.703125 0.40625 C 9.066406 0.40625 8.332031 0.363281 7.5 0.28125 C 6.664062 0.195312 5.859375 0.046875 5.078125 -0.171875 C 4.296875 -0.390625 3.644531 -0.691406 3.125 -1.078125 C 2.601562 -1.460938 2.34375 -1.9375 2.34375 -2.5 C 2.34375 -2.9375 2.5 -3.34375 2.8125 -3.71875 C 3.132812 -4.101562 3.597656 -4.296875 4.203125 -4.296875 C 4.367188 -4.296875 4.472656 -4.285156 4.515625 -4.265625 C 4.566406 -4.253906 4.628906 -4.234375 4.703125 -4.203125 C 5.398438 -3.929688 6.15625 -3.671875 6.96875 -3.421875 C 7.789062 -3.171875 8.703125 -3.046875 9.703125 -3.046875 C 11.066406 -3.046875 12.171875 -3.335938 13.015625 -3.921875 C 13.867188 -4.503906 14.296875 -5.445312 14.296875 -6.75 C 14.296875 -7.644531 14.113281 -8.316406 13.75 -8.765625 C 13.382812 -9.222656 12.953125 -9.582031 12.453125 -9.84375 C 11.648438 -10.28125 10.695312 -10.671875 9.59375 -11.015625 C 8.5 -11.367188 7.414062 -11.8125 6.34375 -12.34375 C 5.28125 -12.882812 4.398438 -13.632812 3.703125 -14.59375 C 3.003906 -15.5625 2.65625 -16.863281 2.65625 -18.5 Z M 2.65625 -18.5 "/></g></g><g style="fill:#888dda;fill-opacity:1;"><g transform="translate(206.737509, 223.449991)"><path style="stroke:none" d="M 7.59375 -34.296875 L 7.59375 -15.65625 L 16.65625 -25.046875 C 16.914062 -25.347656 17.3125 -25.5 17.84375 -25.5 C 18.382812 -25.5 18.828125 -25.320312 19.171875 -24.96875 C 19.523438 -24.625 19.703125 -24.203125 19.703125 -23.703125 C 19.703125 -23.171875 19.535156 -22.738281 19.203125 -22.40625 L 11.84375 -14.90625 L 20.296875 -2.40625 C 20.398438 -2.269531 20.472656 -2.082031 20.515625 -1.84375 C 20.566406 -1.613281 20.59375 -1.414062 20.59375 -1.25 C 20.5625 -0.75 20.367188 -0.347656 20.015625 -0.046875 C 19.671875 0.253906 19.25 0.40625 18.75 0.40625 C 18.082031 0.40625 17.550781 0.0859375 17.15625 -0.546875 L 9.40625 -12.34375 L 7.59375 -10.5 L 7.59375 -1.546875 C 7.59375 -1.015625 7.410156 -0.554688 7.046875 -0.171875 C 6.679688 0.210938 6.21875 0.40625 5.65625 0.40625 C 5.113281 0.40625 4.648438 0.210938 4.265625 -0.171875 C 3.890625 -0.554688 3.703125 -1.015625 3.703125 -1.546875 L 3.703125 -34.296875 C 3.703125 -34.867188 3.890625 -35.335938 4.265625 -35.703125 C 4.648438 -36.066406 5.113281 -36.25 5.65625 -36.25 C 6.21875 -36.25 6.679688 -36.066406 7.046875 -35.703125 C 7.410156 -35.335938 7.59375 -34.867188 7.59375 -34.296875 Z M 7.59375 -34.296875 "/></g></g></g></svg>